<svg version="1.1" xmlns="http://www.w3.org/2000/svg" xmlns:xlink="http://www.w3.org/1999/xlink" viewBox="0 0 1024 1024" xml:space="preserve">
<style>
  path { fill: #522D65; }
  @media (prefers-color-scheme: dark) { path { fill: #ffffff; } }
</style>
<path d="M266.812500,762.971924 C275.771240,764.218445 284.252228,763.065247 292.734436,763.045166 C333.732147,762.947937 374.733765,762.712708 415.726624,763.175781 C432.551514,763.365784 449.378845,763.595703 466.204315,763.562866 C471.566589,763.552429 475.932129,765.203491 479.733368,768.847900 C498.657104,786.990662 520.124573,801.457581 543.577942,813.077515 C545.493835,814.026733 548.854736,814.413391 548.164307,817.458801 C547.480042,820.477112 544.282166,819.440735 542.140991,819.471680 C470.485931,820.508362 398.826172,820.078735 327.167786,820.059814 C302.174866,820.053162 277.158447,820.632690 252.199646,819.156250 C211.679642,816.759155 173.999207,805.903564 140.728577,781.525024 C110.248375,759.191101 86.322464,731.697754 70.854820,697.042053 C62.224602,677.705811 57.201519,657.616333 55.520992,636.423523 C52.029945,592.398560 61.902962,551.707581 84.925270,514.289551 C106.817627,478.707977 137.043121,452.343353 175.155731,435.005676 C197.373367,424.898682 220.676254,419.162140 244.882675,417.018250 C249.643509,416.596619 251.377548,414.256165 252.711700,410.228699 C263.319214,378.207397 279.900208,349.531281 301.613861,323.783539 C323.250366,298.127258 349.075989,277.621277 378.487640,261.576782 C410.630524,244.042343 445.028290,233.407928 481.381714,229.910721 C520.906067,226.108475 559.837280,229.757812 597.778564,242.146835 C640.545715,256.111664 677.801147,279.007935 709.409729,310.981781 C735.385437,337.257538 755.436218,367.439880 768.654236,402.067810 C776.603394,422.892792 781.322388,444.436737 783.113892,466.595032 C783.505737,471.441833 785.305664,472.781616 789.854309,472.840759 C812.079224,473.129822 833.980469,475.405365 855.152161,482.945435 C884.490845,493.394135 908.709290,510.816193 928.389832,534.851135 C940.203186,549.278198 950.318665,564.621338 955.948853,582.573486 C958.443054,590.526428 960.254028,598.651978 961.122498,606.945618 C961.672180,612.195679 960.304504,613.911499 955.257996,613.947632 C939.593140,614.059814 923.926819,613.935913 908.261230,613.969788 C903.841797,613.979309 901.781494,611.595154 900.555176,607.612793 C896.083984,593.093994 888.969910,579.898865 878.962280,568.514038 C861.431641,548.570740 839.123108,537.281372 812.965942,533.239014 C798.063110,530.935913 783.074341,531.449036 768.096436,531.363770 C756.930420,531.300232 745.764221,531.286377 734.598328,531.211914 C728.281067,531.169739 727.687744,530.544373 727.637451,524.397339 C727.551636,513.905579 727.473877,503.422760 727.099670,492.925964 C725.970703,461.253357 718.065063,431.364929 703.654663,403.321228 C677.504761,352.431549 637.269653,317.379669 583.380310,297.979797 C555.239685,287.849304 526.099670,283.539337 496.472595,285.582123 C469.765900,287.423553 443.962036,294.534576 419.552856,305.831573 C360.222321,333.290863 322.231476,379.218170 303.115662,441.273102 C300.518127,449.705353 299.017853,458.407471 298.285614,467.216309 C297.805786,472.988586 295.386444,475.365143 289.677032,475.130188 C282.521576,474.835663 275.365082,474.455872 268.225708,473.898834 C230.795441,470.978546 197.310287,481.118958 168.166656,504.725220 C145.421860,523.148499 128.395309,545.813354 119.479889,574.053711 C111.933884,597.956360 112.332077,622.100098 116.463455,646.579956 C119.177864,662.663818 122.771751,678.254211 131.683182,692.157715 C154.372742,727.557495 185.467636,751.373535 227.043091,760.060852 C239.900940,762.747498 253.161255,762.985229 266.812500,762.971924z"/>
<path d="M170.116180,584.080139 C160.283401,600.221619 155.368744,617.484070 154.280258,635.919556 C154.143555,638.234741 153.748260,640.536621 153.425751,642.838135 C153.232300,644.218689 152.792419,645.594849 151.099731,645.565308 C149.413864,645.536011 149.068253,644.111877 148.810120,642.762634 C146.294373,629.612122 145.609756,616.370422 147.146927,603.064392 C152.941727,552.903992 194.117935,515.513000 240.288925,506.279022 C280.304688,498.276031 316.959229,507.978149 350.387024,530.482605 C374.154846,546.483704 392.718475,567.928040 410.518799,590.053040 C427.565125,611.240723 441.753937,634.488892 458.068481,656.187683 C485.634705,692.851440 516.570251,726.320068 554.618958,752.441101 C584.334595,772.841431 617.244751,785.761353 653.010986,790.427063 C675.493164,793.359802 698.183105,794.902710 720.246399,787.130005 C755.181763,774.822693 778.996460,751.919128 788.003052,715.228638 C793.148499,694.267578 787.848511,675.301575 775.939880,657.891357 C770.684448,650.208130 765.031189,642.796936 758.558594,635.732300 C759.705688,638.264160 760.800842,640.821045 762.008728,643.323547 C768.086731,655.916321 775.005188,668.225403 778.170105,681.956848 C786.756958,719.211853 772.167480,750.304504 737.879456,768.174194 C718.240295,778.409424 697.271667,782.173584 675.133179,781.597351 C640.880981,780.705750 609.856506,769.921692 580.640320,752.853149 C579.353577,752.101379 578.145996,751.201172 576.968079,750.284546 C576.636658,750.026672 576.542053,749.464355 576.238892,748.833740 C578.311218,747.081177 580.122742,748.673340 581.750366,749.274963 C598.647522,755.520386 615.677979,761.376099 633.710754,763.214111 C662.381836,766.136475 690.950623,767.343445 718.075989,754.687439 C736.564331,746.061279 750.998779,733.445557 758.371216,713.833374 C762.386292,703.152649 762.151794,693.237122 754.840088,683.683960 C747.875305,674.583862 740.786316,665.516174 736.222168,654.772827 C726.998108,633.060852 727.294189,611.074707 733.675232,588.817566 C734.592346,585.618835 735.601074,582.434998 736.785522,579.327332 C737.973083,576.211548 740.449768,575.268311 742.346130,578.192993 C754.233948,596.527161 773.434998,605.556335 791.123535,616.272034 C801.437805,622.520630 807.233459,631.265320 811.105652,642.046753 C812.323181,645.436646 812.661743,649.181091 814.735352,652.106750 C816.532288,652.593323 817.499634,651.505920 818.505981,650.716003 C834.133606,638.450317 851.464661,635.069641 870.698364,640.085999 C885.675110,643.992004 900.876831,644.806458 916.188904,641.875916 C918.079285,641.514099 920.260071,640.868896 921.858582,642.637878 C923.552979,644.512939 922.226685,646.353882 921.549438,648.211731 C911.466797,675.872498 892.830566,695.399109 865.670410,706.680725 C856.552063,710.468201 846.685181,711.665344 837.151917,713.970032 C824.858582,716.942078 815.522034,722.901733 809.292419,734.475891 C800.508728,750.795288 789.717346,765.832092 776.159363,778.691345 C759.013306,794.953674 739.000488,806.230896 716.233643,812.319763 C657.442322,828.043335 601.559265,818.100647 549.280151,789.482422 C510.052307,768.008728 477.737946,737.700073 450.365082,702.012817 C428.448242,673.438782 408.641907,643.352112 386.572998,614.928772 C373.099457,597.575684 359.612183,580.118225 342.274872,566.229370 C317.087311,546.051636 288.963531,533.191711 256.115662,534.355225 C219.060211,535.667603 190.247971,552.257202 170.116180,584.080139z"/>
<path d="M493.215210,443.810028 C478.083282,432.517853 472.050659,413.659271 477.852264,396.458954 C483.902893,378.520416 499.504791,367.460388 518.487732,367.652802 C537.085144,367.841278 552.486450,379.293976 558.118408,397.122833 C563.621277,414.542969 557.720886,433.114349 542.747314,443.613434 C539.031433,446.218842 538.532776,448.670715 539.344482,452.657928 C543.394409,472.551331 547.196472,492.495087 551.153625,512.407654 C551.863281,515.978760 552.040771,518.432922 547.013245,518.379700 C527.682861,518.174866 508.349060,518.294922 489.016571,518.268250 C487.554260,518.266235 485.984039,518.543030 484.288849,516.856873 C485.760590,508.773132 487.244232,500.301147 488.854431,491.853271 C491.440186,478.287140 493.962677,464.705658 496.840698,451.200714 C497.619568,447.545898 496.532867,445.525146 493.215210,443.810028z"/>
</svg>
