<svg width="915" height="600" viewBox="0 0 915 600" fill="none" xmlns="http://www.w3.org/2000/svg">
<g filter="url(#filter0_d_2012_13)">
<g filter="url(#filter1_i_2012_13)">
<path d="M215.976 534.496C224.935 535.742 233.416 534.589 241.898 534.569C282.896 534.472 323.897 534.236 364.89 534.699C381.715 534.889 398.542 535.119 415.368 535.087C420.73 535.076 425.096 536.727 428.897 540.372C447.821 558.514 469.288 572.981 492.741 584.601C494.657 585.55 498.018 585.937 497.328 588.982C496.643 592.001 493.446 590.964 491.304 590.995C419.649 592.032 347.99 591.602 276.331 591.583C251.338 591.577 226.322 592.156 201.363 590.68C160.843 588.283 123.163 577.427 89.892 553.049C59.4118 530.715 35.4859 503.221 20.0183 468.566C11.3881 449.229 6.36497 429.14 4.68444 407.947C1.1934 363.922 11.0664 323.231 34.0887 285.813C55.9811 250.232 86.2066 223.867 124.319 206.529C146.537 196.422 169.84 190.686 194.046 188.542C198.807 188.12 200.541 185.78 201.875 181.752C212.483 149.731 229.064 121.055 250.777 95.3072C272.414 69.6509 298.239 49.1449 327.651 33.1004C359.794 15.566 394.192 4.93159 430.545 1.43439C470.07 -2.36786 509.001 1.28148 546.942 13.6705C589.709 27.6353 626.965 50.5316 658.573 82.5054C684.549 108.781 704.6 138.964 717.818 173.591C725.767 194.416 730.486 215.96 732.277 238.119C732.669 242.965 734.469 244.305 739.018 244.364C761.243 244.653 783.144 246.929 804.316 254.469C833.654 264.918 857.873 282.34 877.553 306.375C889.367 320.802 899.482 336.145 905.112 354.097C907.607 362.05 909.417 370.176 910.286 378.469C910.836 383.719 909.468 385.435 904.421 385.471C888.757 385.583 873.09 385.46 857.425 385.493C853.005 385.503 850.945 383.119 849.719 379.136C845.247 364.618 838.133 351.423 828.126 340.038C810.595 320.094 788.287 308.805 762.129 304.763C747.227 302.46 732.238 302.973 717.26 302.887C706.094 302.824 694.928 302.81 683.762 302.736C677.445 302.693 676.851 302.068 676.801 295.921C676.715 285.429 676.637 274.946 676.263 264.45C675.134 232.777 667.229 202.889 652.818 174.845C626.668 123.955 586.433 88.9033 532.544 69.5035C504.403 59.373 475.263 55.063 445.636 57.1058C418.929 58.9472 393.125 66.0582 368.716 77.3552C309.386 104.815 271.395 150.742 252.279 212.797C249.682 221.229 248.181 229.931 247.449 238.74C246.969 244.512 244.55 246.889 238.84 246.654C231.685 246.359 224.529 245.98 217.389 245.423C179.959 242.502 146.474 252.643 117.33 276.249C94.5853 294.672 77.5588 317.337 68.6433 345.577C61.0973 369.48 61.4955 393.624 65.6269 418.104C68.3413 434.188 71.9352 449.778 80.8466 463.681C103.536 499.081 134.631 522.897 176.207 531.585C189.064 534.271 202.325 534.509 215.976 534.496Z" fill="#995BD5"/>
</g>
<g filter="url(#filter2_i_2012_13)">
<path d="M119.28 355.604C109.447 371.745 104.532 389.008 103.444 407.443C103.307 409.758 102.912 412.06 102.589 414.362C102.396 415.742 101.956 417.119 100.263 417.089C98.5774 417.06 98.2318 415.636 97.9736 414.286C95.4579 401.136 94.7733 387.894 96.3104 374.588C102.105 324.428 143.281 287.037 189.452 277.803C229.468 269.8 266.123 279.502 299.551 302.006C323.318 318.007 341.882 339.452 359.682 361.577C376.729 382.764 390.917 406.013 407.232 427.711C434.798 464.375 465.734 497.844 503.782 523.965C533.498 544.365 566.408 557.285 602.174 561.951C624.657 564.883 647.347 566.426 669.41 558.654C704.345 546.346 728.16 523.443 737.167 486.752C742.312 465.791 737.012 446.825 725.103 429.415C719.848 421.732 714.195 414.321 707.722 407.256C708.869 409.788 709.964 412.345 711.172 414.847C717.25 427.44 724.169 439.749 727.334 453.481C735.92 490.736 721.331 521.828 687.043 539.698C667.404 549.933 646.435 553.697 624.297 553.121C590.044 552.229 559.02 541.445 529.804 524.377C528.517 523.625 527.31 522.725 526.132 521.808C525.8 521.55 525.706 520.988 525.402 520.357C527.475 518.605 529.286 520.197 530.914 520.799C547.811 527.044 564.841 532.9 582.874 534.738C611.545 537.66 640.114 538.867 667.24 526.211C685.728 517.585 700.162 504.969 707.535 485.357C711.55 474.676 711.315 464.761 704.004 455.208C697.039 446.108 689.95 437.04 685.386 426.296C676.162 404.585 676.458 382.598 682.839 360.341C683.756 357.142 684.765 353.959 685.949 350.851C687.137 347.735 689.613 346.792 691.51 349.717C703.397 368.051 722.599 377.08 740.287 387.796C750.601 394.044 756.397 402.789 760.269 413.57C761.487 416.96 761.825 420.705 763.899 423.63C765.696 424.117 766.663 423.03 767.669 422.24C783.297 409.974 800.628 406.593 819.862 411.61C834.839 415.516 850.04 416.33 865.352 413.4C867.243 413.038 869.424 412.393 871.022 414.162C872.716 416.037 871.39 417.878 870.713 419.735C860.63 447.396 841.994 466.923 814.834 478.204C805.716 481.992 795.849 483.189 786.315 485.494C774.022 488.466 764.686 494.425 758.456 506C749.672 522.319 738.881 537.356 725.323 550.215C708.177 566.477 688.164 577.755 665.397 583.843C606.606 599.567 550.723 589.624 498.444 561.006C459.216 539.532 426.901 509.224 399.529 473.536C377.612 444.962 357.805 414.876 335.737 386.452C322.263 369.099 308.776 351.642 291.438 337.753C266.251 317.575 238.127 304.715 205.279 305.879C168.224 307.191 139.411 323.781 119.28 355.604Z" fill="#8EDF34"/>
</g>
<g filter="url(#filter3_i_2012_13)">
<path d="M442.379 215.334C427.247 204.042 421.214 185.183 427.016 167.983C433.066 150.044 448.668 138.984 467.651 139.176C486.249 139.365 501.65 150.818 507.282 168.646C512.785 186.067 506.884 204.638 491.911 215.137C488.195 217.743 487.696 220.194 488.508 224.182C492.558 244.075 496.36 264.019 500.317 283.931C501.027 287.502 501.204 289.957 496.177 289.903C476.846 289.699 457.513 289.819 438.18 289.792C436.718 289.79 435.148 290.067 433.452 288.381C434.924 280.297 436.408 271.825 438.018 263.377C440.604 249.811 443.126 236.229 446.004 222.724C446.783 219.07 445.696 217.049 442.379 215.334Z" fill="#995BD5"/>
</g>
</g>
<defs>
<filter id="filter0_d_2012_13" x="0" y="0" width="914.399" height="599.69" filterUnits="userSpaceOnUse" color-interpolation-filters="sRGB">
<feFlood flood-opacity="0" result="BackgroundImageFix"/>
<feColorMatrix in="SourceAlpha" type="matrix" values="0 0 0 0 0 0 0 0 0 0 0 0 0 0 0 0 0 0 127 0" result="hardAlpha"/>
<feOffset dy="4"/>
<feGaussianBlur stdDeviation="2"/>
<feComposite in2="hardAlpha" operator="out"/>
<feColorMatrix type="matrix" values="0 0 0 0 0 0 0 0 0 0 0 0 0 0 0 0 0 0 0.25 0"/>
<feBlend mode="normal" in2="BackgroundImageFix" result="effect1_dropShadow_2012_13"/>
<feBlend mode="normal" in="SourceGraphic" in2="effect1_dropShadow_2012_13" result="shape"/>
</filter>
<filter id="filter1_i_2012_13" x="4" y="0" width="906.399" height="595.69" filterUnits="userSpaceOnUse" color-interpolation-filters="sRGB">
<feFlood flood-opacity="0" result="BackgroundImageFix"/>
<feBlend mode="normal" in="SourceGraphic" in2="BackgroundImageFix" result="shape"/>
<feColorMatrix in="SourceAlpha" type="matrix" values="0 0 0 0 0 0 0 0 0 0 0 0 0 0 0 0 0 0 127 0" result="hardAlpha"/>
<feOffset dy="4"/>
<feGaussianBlur stdDeviation="2"/>
<feComposite in2="hardAlpha" operator="arithmetic" k2="-1" k3="1"/>
<feColorMatrix type="matrix" values="0 0 0 0 0 0 0 0 0 0 0 0 0 0 0 0 0 0 0.25 0"/>
<feBlend mode="normal" in2="shape" result="effect1_innerShadow_2012_13"/>
</filter>
<filter id="filter2_i_2012_13" x="95.4958" y="275.03" width="776.353" height="320.252" filterUnits="userSpaceOnUse" color-interpolation-filters="sRGB">
<feFlood flood-opacity="0" result="BackgroundImageFix"/>
<feBlend mode="normal" in="SourceGraphic" in2="BackgroundImageFix" result="shape"/>
<feColorMatrix in="SourceAlpha" type="matrix" values="0 0 0 0 0 0 0 0 0 0 0 0 0 0 0 0 0 0 127 0" result="hardAlpha"/>
<feOffset dy="4"/>
<feGaussianBlur stdDeviation="2"/>
<feComposite in2="hardAlpha" operator="arithmetic" k2="-1" k3="1"/>
<feColorMatrix type="matrix" values="0 0 0 0 0 0 0 0 0 0 0 0 0 0 0 0 0 0 0.25 0"/>
<feBlend mode="normal" in2="shape" result="effect1_innerShadow_2012_13"/>
</filter>
<filter id="filter3_i_2012_13" x="424.841" y="139.174" width="84.467" height="154.73" filterUnits="userSpaceOnUse" color-interpolation-filters="sRGB">
<feFlood flood-opacity="0" result="BackgroundImageFix"/>
<feBlend mode="normal" in="SourceGraphic" in2="BackgroundImageFix" result="shape"/>
<feColorMatrix in="SourceAlpha" type="matrix" values="0 0 0 0 0 0 0 0 0 0 0 0 0 0 0 0 0 0 127 0" result="hardAlpha"/>
<feOffset dy="10"/>
<feGaussianBlur stdDeviation="2"/>
<feComposite in2="hardAlpha" operator="arithmetic" k2="-1" k3="1"/>
<feColorMatrix type="matrix" values="0 0 0 0 0 0 0 0 0 0 0 0 0 0 0 0 0 0 0.25 0"/>
<feBlend mode="normal" in2="shape" result="effect1_innerShadow_2012_13"/>
</filter>
</defs>
</svg>
